<svg id="Capa_1" enable-background="new 0 0 512 512" height="512" viewBox="0 0 512 512" width="512" xmlns="http://www.w3.org/2000/svg"><g><path d="m490.796 0-490.796 490.796 10.602 10.602 290.413-274.064 200.383-216.732z" fill="#ade232"/><path d="m-85.744 253.804h694.09v14.993h-694.09z" fill="#70d940" transform="matrix(.707 -.707 .707 .707 -108.234 261.301)"/><g><path d="m38.993 309.777-1.478-1.478-1.478 1.479c-22.196 22.195-34.419 51.704-34.419 83.093 0 31.388 12.223 60.898 34.419 83.093l16.189-.86.941-16.271c31.018-45.703 26.294-108.588-14.174-149.056z" fill="#70d940"/><path d="m36.037 475.963c22.195 22.195 51.704 34.419 83.093 34.419s60.898-12.224 83.093-34.419l1.478-1.478-1.478-1.478c-40.468-40.468-103.353-45.191-149.056-14.174z" fill="#00a963"/><path d="m141.727 207.043-1.478-1.479-1.478 1.479c-22.196 22.195-34.419 51.705-34.419 83.093s12.223 60.898 34.419 83.093l15.534.815 1.597-17.945c31.016-45.703 26.293-108.588-14.175-149.056z" fill="#70d940"/><path d="m138.771 373.23c22.195 22.195 51.704 34.419 83.093 34.419s60.898-12.224 83.093-34.419l1.478-1.478-1.478-1.478c-40.468-40.468-103.353-45.191-149.056-14.174z" fill="#00a963"/><path d="m244.461 104.31-1.478-1.478-1.478 1.479c-22.196 22.195-34.419 51.705-34.419 83.093s12.223 60.898 34.419 83.093l14.708-2.433 2.423-14.698c31.016-45.703 26.293-108.589-14.175-149.056z" fill="#70d940"/><path d="m241.505 270.496c22.195 22.195 51.704 34.419 83.093 34.419s60.898-12.224 83.093-34.419l1.478-1.478-1.478-1.478c-40.468-40.468-103.353-45.191-149.056-14.174 0 0 0 0 .001-.001z" fill="#00a963"/><path d="m347.195 1.576-1.478-1.478-1.478 1.479c-22.196 22.195-34.419 51.704-34.419 83.093 0 31.388 12.223 60.898 34.419 83.093l14.172-2.506 2.959-14.625c31.016-45.703 26.293-108.588-14.175-149.056z" fill="#70d940"/><path d="m427.331 202.181c31.389 0 60.898-12.224 83.093-34.419l1.478-1.478-1.478-1.478c-40.468-40.468-103.353-45.191-149.056-14.174l-17.131 17.131c22.196 22.194 51.706 34.418 83.094 34.418z" fill="#00a963"/></g></g></svg>