<svg id="Capa_1" enable-background="new 0 0 511.987 511.987" height="512" viewBox="0 0 511.987 511.987" width="512" xmlns="http://www.w3.org/2000/svg"><g><path d="m343.802 338.999c11.712 2.33 23.238 3.285 34.277 3.285 49.168 0 88.566-18.967 90.575-19.951l17.646-8.647-12.993-14.741c-1.812-2.055-45.094-50.471-108.97-63.177-35.734-7.107-69.788-1.423-93.292 5.176v-.001l-29.185.901-6.398 34.682c5.788 6.343 47.816 50.434 108.34 62.473z" fill="#00aa95"/><path d="m223.594 459.207c11.712 2.33 23.238 3.285 34.277 3.285 49.168 0 88.566-18.967 90.575-19.951l17.646-8.647-12.994-14.741c-1.812-2.055-45.094-50.471-108.97-63.177-35.734-7.107-69.788-1.423-93.292 5.176 0 0 0-.001 0-.002l-29.818 1.534-5.765 34.049c5.789 6.344 47.817 50.435 108.341 62.474z" fill="#00aa95"/><path d="m156.013 267.86c-12.707-63.877-61.122-107.16-63.177-108.971l-14.742-12.994-8.646 17.646c-1.205 2.459-29.372 60.975-16.667 124.852 12.04 60.524 56.13 102.552 62.475 108.339l35.583-35.583c6.597-23.503 12.281-57.555 5.174-93.289z" fill="#00dd80"/><path d="m276.221 147.652c-12.707-63.877-61.122-107.16-63.177-108.971l-14.742-12.994-8.646 17.646c-1.205 2.459-29.372 60.975-16.667 124.852 12.04 60.524 56.13 102.552 62.475 108.339l35.583-35.583c6.597-23.502 12.281-57.555 5.174-93.289z" fill="#00dd80"/><path d="m10.606 501.381 10.607 10.606 328.194-328.194-17.677-17.678z" fill="#007769"/><path d="m-62.668 324.481h464.137v15h-464.137z" fill="#00aa95" transform="matrix(.707 -.707 .707 .707 -185.129 217.019)"/><path d="m340.796 188.053c2.715-.364 67.019-9.454 113.071-55.507 46.052-46.052 55.142-110.355 55.506-113.07l2.614-19.476-109.476 81.192-81.191 109.475z" fill="#00aa95"/><path d="m379.441 58.121c-46.053 46.053-55.143 110.355-55.507 113.07l-2.615 19.477 190.668-190.668-19.476 2.614c-2.714.365-67.017 9.454-113.07 55.507z" fill="#00dd80"/></g></svg>